<svg fill="none" height="44" viewBox="2 2 40 40" width="44" xmlns="http://www.w3.org/2000/svg" xmlns:xlink="http://www.w3.org/1999/xlink"><g><rect fill="#20324c" height="40" width="40" x="2" y="2"/><path d="m24.9442 20.7531-1.936 5.312c-.048.144-.048.304 0 .464l3.328 9.136 3.856-2.224-4.624-12.688c-.112-.288-.512-.288-.624 0z" fill="#12aaff"/><path d="m28.8323 11.8254c-.112-.288-.512-.288-.624 0l-1.936 5.312c-.048.144-.048.304 0 .464l5.456 14.96 3.856-2.224-6.752-18.496z" fill="#12aaff"/><path d="m12.2559 32.5753 1.36-3.712 2.72 2.256-2.544 2.336z" fill="#213147"/><g fill="#fff"><path d="m20.7359 8.016h-3.728c-.272 0-.528.176-.624.432l-7.984 21.888 3.856 2.224 8.8-24.112c.08-.224-.08-.448-.304-.448z"/><path d="m27.264 8.016h-3.728c-.272 0-.528.176-.624.432l-9.12 24.992 3.856 2.224 9.92-27.216c.08-.224-.08-.448-.304-.448z"/></g></g></svg>